<?xml version="1.0" standalone="no"?>
<!DOCTYPE svg PUBLIC "-//W3C//DTD SVG 20010904//EN"
 "http://www.w3.org/TR/2001/REC-SVG-20010904/DTD/svg10.dtd">
<svg version="1.0" xmlns="http://www.w3.org/2000/svg"
 width="1468.000000pt" height="1468.000000pt" viewBox="0 0 1468.000000 1468.000000"
 preserveAspectRatio="xMidYMid meet">
<metadata>
Created by potrace 1.11, written by Peter Selinger 2001-2013
</metadata>
<g transform="translate(0.000000,1468.000000) scale(0.100000,-0.100000)"
fill="#000000" stroke="none">
<path d="M6865 12495 c-737 -70 -1435 -289 -2055 -646 -237 -136 -557 -360
-742 -521 -34 -29 -62 -47 -69 -42 -7 4 -9 3 -6 -3 4 -6 -17 -32 -46 -58 -105
-97 -252 -243 -345 -342 -52 -56 -99 -100 -105 -96 -6 3 -7 1 -3 -5 9 -15
-124 -173 -137 -165 -6 3 -7 1 -3 -5 8 -13 -82 -129 -96 -124 -5 1 -7 -2 -3
-7 3 -6 -18 -43 -48 -83 -164 -222 -362 -561 -482 -828 -231 -510 -363 -988
-432 -1570 -22 -186 -25 -849 -5 -1035 60 -551 188 -1042 394 -1523 l15 -33
151 -2 c109 -1 152 1 152 10 0 6 -17 49 -39 95 -182 394 -321 894 -381 1373
-42 342 -42 808 0 1150 70 557 220 1054 471 1558 114 230 292 522 422 692 101
132 120 154 130 148 6 -3 7 -1 3 6 -9 14 56 94 216 264 67 71 124 124 130 121
6 -4 8 -2 5 3 -14 22 362 361 384 347 7 -4 9 -3 5 4 -7 12 207 175 374 284
614 399 1334 661 2025 737 230 26 328 31 573 31 670 1 1270 -121 1883 -381
l96 -41 69 52 c38 28 95 68 126 88 32 21 58 40 58 44 0 4 -35 23 -77 43 -502
236 -1014 380 -1603 451 -190 23 -801 28 -1005 9z"/>
<path d="M9861 12099 c-29 -4 -73 -15 -98 -24 -46 -18 -171 -106 -186 -131 -4
-7 -38 -29 -75 -49 -229 -120 -341 -318 -303 -535 38 -213 138 -404 335 -640
244 -292 339 -441 395 -624 46 -151 35 -348 -28 -482 -78 -167 -193 -256 -371
-290 -89 -17 -168 -16 -430 6 -69 6 -159 8 -200 6 -69 -5 -72 -4 -35 6 23 7
114 12 216 12 l176 1 -83 31 c-168 63 -407 210 -735 450 -97 71 -266 195 -376
276 -205 150 -418 295 -533 363 -36 21 -81 48 -100 60 -35 21 -226 115 -235
115 -3 0 33 -38 79 -84 72 -72 216 -269 265 -363 19 -37 6 -26 -24 18 -83 126
-251 305 -375 398 -84 63 -203 125 -270 140 -247 57 -601 -14 -950 -191 -141
-72 -192 -107 -136 -94 58 14 192 26 276 25 75 -1 80 -2 40 -9 -25 -5 -87 -14
-138 -20 -123 -16 -254 -51 -344 -94 -120 -57 -290 -194 -452 -363 -38 -40
-73 -70 -79 -66 -6 3 -7 1 -4 -4 4 -6 -17 -42 -46 -80 -153 -199 -245 -389
-347 -713 -85 -271 -119 -369 -155 -444 -32 -68 -50 -97 -165 -265 -27 -40
-55 -92 -60 -115 -26 -100 -68 -154 -157 -197 -65 -32 -170 -33 -228 -2 -124
66 -168 177 -179 452 -7 170 -20 217 -63 227 -102 26 -233 -286 -233 -556 0
-202 58 -360 172 -466 112 -104 234 -149 403 -148 108 1 198 19 304 60 94 37
101 48 102 158 1 50 4 80 6 66 29 -187 80 -347 127 -405 18 -22 57 -65 86 -95
29 -30 59 -71 67 -90 21 -47 18 -155 -7 -274 -11 -57 -20 -141 -21 -200 l-1
-101 -13 50 c-17 66 -18 138 -2 154 19 19 -20 2 -68 -30 -22 -14 -74 -43 -115
-64 -119 -59 -194 -118 -259 -203 -86 -112 -122 -145 -262 -237 -159 -104
-198 -151 -169 -205 15 -29 73 -52 108 -44 15 3 65 26 112 50 47 24 77 38 66
32 -105 -71 -134 -143 -76 -191 42 -36 125 -51 245 -44 217 12 324 75 354 207
9 38 7 51 -9 84 -21 44 -18 60 12 53 32 -9 137 35 184 76 l44 39 27 -20 c87
-61 192 -92 231 -68 6 4 31 37 55 74 53 81 60 88 151 132 106 52 109 60 100
285 -7 197 -1 229 50 280 34 34 94 34 133 1 24 -21 28 -31 27 -78 0 -60 -57
-194 -76 -182 -7 4 -8 2 -4 -5 4 -6 -7 -32 -27 -59 -21 -29 -40 -73 -50 -116
-10 -38 -23 -79 -31 -91 -8 -12 -47 -37 -88 -57 -73 -35 -102 -61 -139 -121
-32 -54 -26 -67 30 -67 122 0 304 49 361 96 17 15 35 22 42 18 7 -4 10 -4 6 1
-11 11 31 67 44 59 6 -4 8 -2 5 3 -4 6 4 36 17 66 14 30 36 110 51 178 29 141
56 230 84 275 11 18 50 53 88 80 37 26 99 70 137 97 l70 49 30 -18 c53 -30
216 -176 209 -187 -3 -6 -1 -7 5 -3 6 4 33 -9 59 -28 68 -48 151 -88 176 -84
20 3 22 9 20 53 -1 28 -4 165 -6 305 l-3 255 -42 128 c-65 202 -76 270 -77
447 0 161 8 214 52 353 26 85 42 103 18 21 -39 -134 -48 -361 -20 -523 8 -49
39 -167 67 -263 57 -191 53 -150 48 -538 -2 -208 7 -305 45 -480 20 -91 16
-137 -31 -355 -43 -200 -53 -232 -81 -274 -16 -24 -23 -48 -23 -83 0 -55 -2
-57 -114 -148 -82 -65 -182 -180 -214 -242 -50 -101 -12 -178 87 -178 57 0 96
25 147 95 20 28 33 41 28 30 -4 -11 -9 -41 -12 -68 -4 -43 -1 -50 30 -81 44
-44 103 -60 193 -53 136 10 251 68 293 148 19 36 23 55 19 104 -8 113 -55 170
-184 225 -76 33 -73 38 7 14 34 -10 75 -14 109 -12 46 4 59 10 84 38 29 33 30
34 21 109 -5 42 -9 229 -9 416 l-1 340 27 85 c49 152 53 183 53 430 l1 235 86
170 c156 307 200 460 202 700 1 77 -2 158 -6 180 -4 25 -3 33 2 20 20 -47 34
-209 28 -333 -6 -132 -28 -239 -72 -352 -13 -33 -20 -60 -15 -60 25 0 174 138
242 224 23 28 45 50 50 48 5 -1 7 1 4 6 -3 5 17 51 44 103 27 52 50 91 50 87
0 -16 -55 -157 -78 -198 -52 -94 -84 -140 -93 -134 -5 3 -6 -1 -3 -9 7 -20
-146 -174 -182 -183 -67 -17 -87 -39 -154 -170 l-64 -127 2 -186 c3 -167 -5
-280 -25 -350 l-6 -24 104 6 c224 13 543 129 783 284 96 62 228 128 315 158
82 28 108 28 36 0 -60 -22 -152 -71 -192 -102 -41 -30 -42 -55 -2 -84 17 -12
38 -37 45 -56 13 -29 12 -37 -2 -66 -53 -105 -251 -295 -422 -405 -230 -148
-364 -272 -375 -346 -2 -16 0 -46 5 -64 11 -40 54 -62 121 -62 41 0 46 3 80
53 20 28 55 70 78 92 l43 40 -43 -50 c-58 -68 -83 -125 -79 -183 3 -44 6 -48
43 -67 59 -29 226 -33 320 -7 84 22 177 79 205 124 54 89 -7 206 -166 316 -11
7 1 2 26 -11 25 -14 69 -41 99 -61 29 -20 59 -36 67 -36 35 0 147 46 173 70
36 35 78 96 123 180 84 155 147 236 272 347 41 35 82 82 94 106 27 54 37 118
23 145 -6 11 -63 78 -127 149 -172 191 -257 330 -323 531 -37 111 -40 144 -5
52 29 -78 106 -228 147 -290 91 -135 227 -277 332 -346 30 -20 52 -40 50 -44
-3 -4 1 -7 8 -7 6 1 82 -33 167 -75 266 -130 477 -188 838 -229 113 -13 121
-16 247 -118 107 -86 331 -308 366 -362 54 -85 49 -101 -81 -235 -183 -191
-251 -305 -215 -360 8 -13 23 -25 33 -26 39 -4 90 -3 87 2 -1 3 36 46 82 95
47 50 70 70 50 45 -82 -107 -98 -182 -42 -210 46 -23 336 -21 430 3 134 34
215 99 215 171 0 38 -55 243 -70 261 -16 19 -77 47 -135 61 -47 12 -45 13 50
7 92 -5 102 -4 128 17 47 37 35 87 -41 173 -50 57 -99 138 -168 277 -75 152
-105 233 -133 369 -27 126 -60 199 -112 246 -21 19 -106 68 -187 109 -159 79
-201 115 -223 183 -6 21 -15 146 -19 278 -9 258 -25 370 -75 520 -55 166 -166
362 -296 522 -58 72 -70 91 -47 77 7 -4 8 -3 4 5 -4 6 -11 9 -15 6 -5 -2 -16
4 -26 15 -17 19 -17 20 21 35 214 85 357 251 400 465 50 248 -49 597 -261 919
-30 46 -52 88 -49 93 3 4 1 7 -4 6 -5 -2 -35 32 -66 76 -31 43 -101 130 -154
193 -180 213 -254 324 -286 432 -32 108 -15 196 53 274 31 35 98 83 105 76 2
-2 15 -27 29 -54 94 -187 328 -243 577 -138 47 19 121 48 165 64 136 49 255
36 358 -37 l47 -34 0 24 c0 13 -9 45 -20 71 -11 26 -17 51 -14 56 3 5 2 8 -3
7 -4 -2 -33 24 -63 56 -30 32 -71 69 -90 81 -43 27 -151 65 -185 65 -14 0 -25
5 -25 10 0 6 10 10 23 10 37 0 121 47 140 79 31 53 24 60 -40 39 -71 -24 -134
-15 -291 42 -162 59 -235 72 -331 59z m224 -88 l50 -18 -111 5 c-76 3 -113 1
-118 -7 -5 -7 3 -11 21 -11 26 0 153 -53 153 -64 0 -2 -26 5 -57 16 -101 37
-308 25 -344 -18 -6 -8 -16 -14 -21 -14 -14 0 69 68 105 87 91 47 228 57 322
24z m344 -230 c64 -20 175 -86 207 -124 15 -17 11 -15 -19 6 -77 57 -236 115
-352 127 l-70 7 87 2 c60 1 105 -5 147 -18z m-1141 -246 c-12 -65 -3 -188 21
-265 10 -33 17 -60 15 -60 -2 0 -16 24 -31 53 -35 69 -43 187 -19 271 21 70
28 70 14 1z m802 7 c-47 -21 -173 -27 -230 -10 -42 13 -40 14 60 10 58 -2 123
1 145 6 58 14 65 13 25 -6z m-3480 -1413 c55 -12 142 -22 205 -24 211 -6 379
-66 545 -194 73 -56 130 -114 123 -124 -3 -6 -1 -7 4 -4 6 4 16 0 22 -7 28
-33 -12 -22 -75 21 -302 203 -685 256 -1066 147 -48 -14 -93 -22 -99 -18 -7 4
-9 3 -6 -3 3 -5 -20 -20 -51 -33 -31 -12 -68 -29 -82 -37 -20 -12 -20 -9 5 11
44 38 297 161 395 192 79 26 83 28 55 36 -54 14 -268 26 -390 22 -111 -4 -204
-13 -315 -30 -25 -4 -43 -4 -40 -1 9 9 240 58 319 67 118 14 341 3 451 -21z
m3485 -139 c20 -77 20 -207 1 -271 -20 -64 -45 -111 -56 -104 -6 3 -7 -1 -4
-9 3 -8 -8 -29 -26 -48 l-31 -33 19 40 c78 160 92 377 36 562 -3 10 6 -3 20
-28 13 -25 32 -74 41 -109z m-4268 84 c-3 -3 -12 -4 -19 -1 -8 3 -5 6 6 6 11
1 17 -2 13 -5z m1756 -372 c26 -29 47 -55 47 -58 0 -3 -27 18 -59 48 -33 29
-57 56 -54 61 8 13 16 6 66 -51z m-2018 -47 c189 -71 354 -248 411 -440 26
-88 23 -240 -5 -324 -26 -74 -87 -175 -101 -166 -5 3 -7 0 -4 -8 12 -34 -170
-165 -274 -197 -102 -32 -116 -26 -47 19 68 45 150 119 142 128 -4 3 -20 -7
-38 -21 -71 -60 -206 -106 -224 -77 -10 18 7 33 86 77 71 38 209 156 209 177
0 6 -10 1 -22 -10 -64 -56 -205 -114 -288 -117 -99 -3 -86 45 23 84 139 50
248 135 298 232 19 34 23 59 23 123 -1 139 -60 250 -219 414 -52 54 -95 105
-95 114 0 25 47 22 125 -8z m3853 -684 c165 -50 277 -117 384 -229 80 -84 115
-132 171 -232 36 -66 65 -133 50 -115 -36 41 -63 87 -57 97 4 6 3 8 -3 5 -6
-4 -31 16 -57 43 -191 211 -415 301 -747 301 -141 0 -261 -18 -381 -55 -43
-13 -75 -20 -72 -15 3 5 11 9 19 9 7 0 20 6 27 14 21 21 95 56 173 83 96 33
300 43 394 19 35 -10 65 -15 68 -12 14 13 -310 95 -387 97 -19 1 -46 5 -60 10
-15 5 63 7 190 5 187 -3 224 -6 288 -25z m-2476 -143 c-57 -83 -143 -278 -123
-278 5 0 12 9 16 19 7 22 114 124 148 142 l22 12 -21 -24 c-42 -48 -134 -206
-160 -274 -14 -38 -35 -115 -45 -170 -18 -87 -19 -113 -9 -200 6 -55 17 -126
24 -158 17 -71 10 -65 -32 28 -112 251 -105 517 20 730 33 56 170 215 185 215
2 0 -9 -19 -25 -42z m-1800 -101 c-11 -12 -33 -49 -49 -82 l-28 -60 0 -225 c0
-231 -3 -247 -43 -283 -19 -18 -20 -17 -14 29 3 26 -1 104 -8 173 -21 205 16
350 110 435 44 40 65 49 32 13z m-1576 -415 c1 -120 4 -146 26 -209 32 -89 68
-153 121 -210 83 -90 228 -152 329 -140 57 7 62 1 11 -12 -175 -46 -357 34
-447 196 -53 95 -69 158 -70 283 0 90 16 230 27 230 1 0 2 -62 3 -138z m345
-305 c139 -43 325 4 391 100 l20 28 -7 -30 c-25 -112 -135 -172 -299 -163
-119 7 -190 47 -245 138 -31 52 -26 51 32 -4 37 -37 68 -56 108 -69z m1428 58
c17 -20 42 -57 55 -83 16 -31 35 -52 55 -60 66 -29 99 -131 71 -217 -26 -79
-109 -141 -178 -134 -18 2 -40 -6 -63 -23 -37 -29 -116 -67 -138 -68 -7 0 9
21 37 48 86 81 129 196 138 370 4 68 1 113 -9 150 -8 28 -11 52 -7 52 5 0 22
-16 39 -35z m3535 -243 c30 -35 90 -95 133 -134 43 -38 77 -74 75 -79 -1 -6 1
-8 6 -5 5 3 46 -19 91 -49 206 -135 411 -207 696 -245 58 -7 42 -8 -85 -5
-179 4 -260 19 -405 76 -132 51 -224 108 -354 219 -71 60 -165 176 -155 191 4
7 3 9 -3 6 -6 -4 -20 8 -31 26 -11 19 -28 47 -37 63 -23 37 -8 22 69 -64z
m1749 -456 c58 -24 80 -59 84 -129 l3 -62 -13 47 c-7 25 -21 58 -31 73 -23 35
-89 64 -151 66 -40 1 -45 3 -25 9 40 13 98 11 133 -4z m-3810 -66 c-23 -65
-29 -266 -10 -355 8 -38 14 -71 12 -73 -2 -2 -13 23 -25 55 -28 72 -38 212
-21 280 13 50 51 146 57 140 2 -1 -4 -23 -13 -47z m2032 -60 c8 -16 15 -36 15
-45 0 -22 -30 -73 -48 -80 -8 -3 -5 6 7 21 29 37 27 85 -6 125 -25 29 -25 31
-5 20 12 -6 29 -25 37 -41z m-539 -226 c-25 -54 -130 -175 -171 -197 -11 -5
-3 7 19 29 65 67 144 177 158 222 9 31 14 38 16 23 2 -12 -8 -46 -22 -77z
m-3052 -76 c-3 -4 0 -7 7 -6 37 8 63 -128 36 -182 -16 -33 -55 -52 -79 -39
-30 16 -32 52 -4 107 28 55 33 110 15 145 -12 22 -12 22 9 3 12 -10 19 -23 16
-28z m-290 -349 c50 -12 77 -39 69 -69 -10 -37 -52 -36 -106 2 -31 22 -51 57
-62 106 l-7 32 30 -30 c17 -16 49 -34 76 -41z m2705 -126 c-29 -27 -65 -66
-81 -87 -36 -50 -37 -32 0 21 27 40 68 79 107 101 33 19 30 14 -26 -35z
m-3158 -34 c43 -28 76 -55 73 -60 -6 -10 -27 2 -49 26 -5 6 -35 28 -65 48 -83
56 -50 44 41 -14z m-446 -36 c-22 -9 -60 -30 -84 -47 -79 -56 -86 -59 -38 -13
26 25 66 52 90 60 57 21 82 20 32 0z m3828 -38 c-23 -20 -60 -63 -82 -96 -47
-70 -52 -70 -17 -1 24 46 57 83 106 115 40 27 37 20 -7 -18z m3020 -12 c-7 -2
-19 -2 -25 0 -7 3 -2 5 12 5 14 0 19 -2 13 -5z m-6660 -102 c-29 -16 -72 -43
-95 -61 -42 -31 -42 -31 7 16 49 46 95 73 125 73 8 1 -9 -12 -37 -28z m6280
-100 c-22 -21 -54 -59 -72 -85 -43 -62 -50 -58 -13 7 16 28 48 67 71 85 57 43
62 41 14 -7z m221 -83 c-28 -29 -60 -70 -73 -90 -32 -53 -36 -47 -7 10 27 52
47 77 90 110 46 35 43 26 -10 -30z m-3744 -53 c0 -38 -29 -75 -57 -74 -14 0
-13 2 4 9 26 11 43 40 43 74 0 14 2 26 5 26 3 0 5 -16 5 -35z m-554 -239 c-24
-25 -65 -75 -90 -113 -52 -77 -58 -76 -19 2 29 60 118 151 151 155 2 0 -17
-20 -42 -44z m235 -102 c-29 -31 -58 -69 -67 -85 -19 -39 -25 -37 -11 3 12 32
105 138 121 138 4 0 -15 -25 -43 -56z"/>
<path d="M5382 7878 c-7 -7 -12 -43 -12 -90 0 -48 -6 -93 -15 -115 -18 -44
-14 -49 24 -34 41 17 71 53 81 95 11 48 -6 122 -33 141 -26 18 -30 18 -45 3z"/>
<path d="M6944 12081 c-76 -7 -96 -23 -92 -70 5 -55 25 -60 206 -47 133 10
156 14 168 31 18 24 18 45 -2 73 -14 20 -22 22 -117 20 -56 0 -129 -4 -163 -7z"/>
<path d="M7407 12072 c-24 -27 -21 -69 6 -86 15 -9 71 -16 175 -21 138 -6 155
-5 173 11 22 20 25 53 5 79 -15 21 -102 33 -257 34 -71 1 -89 -2 -102 -17z"/>
<path d="M7963 12039 c-45 -17 -42 -89 5 -107 36 -14 226 -45 282 -46 39 -1
46 2 57 26 10 20 11 32 2 52 -14 30 -11 29 -159 56 -164 29 -163 29 -187 19z"/>
<path d="M6455 12014 c-123 -24 -145 -36 -145 -78 1 -34 26 -59 58 -58 16 0
62 7 103 16 41 8 100 18 131 21 63 8 98 32 98 69 0 61 -55 68 -245 30z"/>
<path d="M8500 11933 c-24 -8 -40 -34 -40 -64 0 -14 6 -31 13 -37 17 -13 282
-92 311 -92 45 0 71 56 44 93 -7 9 -69 34 -138 55 -150 47 -171 51 -190 45z"/>
<path d="M5950 11888 c-69 -22 -133 -47 -142 -56 -27 -23 -23 -68 7 -88 14 -9
33 -14 43 -11 163 46 289 90 300 104 30 41 0 94 -54 92 -16 0 -85 -18 -154
-41z"/>
<path d="M5457 11705 c-64 -29 -129 -60 -142 -69 -46 -30 -25 -106 29 -106 13
0 65 20 117 44 52 24 112 50 133 57 50 18 70 47 57 82 -10 26 -39 48 -63 46
-7 0 -66 -24 -131 -54z"/>
<path d="M5079 11516 c-140 -73 -246 -142 -259 -166 -8 -15 -7 -28 2 -48 20
-42 67 -42 132 1 28 18 82 51 119 71 37 21 75 50 84 63 15 22 15 28 2 51 -18
33 -50 44 -80 28z"/>
<path d="M10250 11478 c-36 -17 -104 -40 -151 -52 l-87 -22 107 -79 c271 -202
579 -474 564 -498 -3 -5 -1 -7 4 -4 17 11 246 -235 374 -400 366 -472 608
-919 787 -1448 297 -876 325 -1866 81 -2765 -64 -233 -177 -547 -263 -730 -14
-30 -26 -59 -26 -65 0 -9 296 -13 304 -4 2 2 28 66 60 141 126 307 239 700
295 1038 60 356 66 430 66 870 0 440 -6 514 -66 870 -99 588 -318 1186 -622
1693 -40 66 -79 132 -87 146 -43 75 -203 297 -309 431 -166 209 -390 447 -588
626 -29 26 -50 51 -46 57 4 6 1 7 -6 2 -15 -9 -63 33 -54 48 3 6 1 7 -6 3 -13
-8 -108 71 -103 86 1 5 -2 7 -7 3 -6 -3 -35 15 -66 40 -31 25 -63 45 -73 44
-9 0 -46 -14 -82 -31z"/>
<path d="M9934 11215 c-28 -42 -12 -65 107 -155 61 -47 120 -90 132 -97 26
-15 58 -3 77 30 13 24 13 28 -6 54 -12 15 -70 65 -130 111 -119 90 -151 101
-180 57z"/>
<path d="M4509 11143 c-63 -47 -117 -91 -121 -97 -16 -23 -8 -75 11 -86 35
-18 59 -11 122 40 34 27 66 47 72 43 5 -3 7 -1 3 5 -3 5 9 20 27 31 82 50 107
99 71 135 -32 33 -67 20 -185 -71z"/>
<path d="M10360 10880 c-37 -37 -26 -57 98 -176 123 -119 145 -131 182 -94 38
38 27 59 -95 178 -123 119 -146 131 -185 92z"/>
<path d="M4096 10788 c-60 -56 -112 -113 -117 -126 -11 -29 9 -67 41 -77 27
-9 43 3 168 123 108 104 122 131 84 165 -38 35 -64 22 -176 -85z"/>
<path d="M10742 10494 c-38 -27 -27 -55 73 -180 104 -130 128 -147 169 -120
45 29 35 63 -46 163 -131 162 -146 172 -196 137z"/>
<path d="M3779 10450 c-23 -27 -46 -47 -52 -43 -6 3 -7 1 -3 -6 4 -7 -9 -31
-31 -59 -81 -98 -88 -117 -50 -152 15 -15 29 -20 47 -15 14 3 30 6 37 7 7 1
10 5 8 9 -7 11 125 170 135 164 6 -3 7 0 5 8 -3 7 3 22 15 32 22 20 26 55 10
86 -7 13 -21 19 -45 19 -28 0 -41 -8 -76 -50z"/>
<path d="M11067 10062 c-10 -10 -17 -27 -17 -36 0 -23 135 -243 167 -273 31
-29 48 -29 79 2 19 19 23 31 18 48 -8 28 -130 224 -157 255 -25 27 -68 29 -90
4z"/>
<path d="M3479 10053 c-39 -46 -159 -251 -159 -270 0 -43 53 -76 87 -55 7 5
51 68 97 142 74 118 83 136 74 159 -5 14 -15 29 -21 33 -21 13 -64 9 -78 -9z"/>
<path d="M11352 9604 c-33 -23 -28 -60 27 -170 27 -54 56 -116 64 -136 19 -45
55 -58 92 -34 38 25 32 62 -36 201 -73 150 -98 174 -147 139z"/>
<path d="M3225 9601 c-19 -8 -116 -189 -145 -273 -12 -32 -11 -40 4 -62 11
-18 25 -26 45 -26 33 0 54 21 77 75 9 22 36 80 61 129 49 100 51 140 6 157
-13 5 -25 9 -26 8 -1 0 -11 -4 -22 -8z"/>
<path d="M11562 9108 c-21 -21 -13 -69 36 -208 40 -116 51 -137 75 -148 38
-19 77 5 77 47 0 34 -75 265 -96 299 -16 25 -71 31 -92 10z"/>
<path d="M2991 9091 c-17 -17 -111 -278 -111 -309 0 -20 38 -52 63 -52 13 0
31 8 39 18 16 19 108 277 108 305 0 23 -35 57 -60 57 -11 0 -28 -8 -39 -19z"/>
<path d="M11716 8578 c-13 -21 -11 -39 17 -174 18 -83 38 -158 46 -167 30 -37
101 -8 101 40 0 55 -54 286 -73 311 -16 21 -75 15 -91 -10z"/>
<path d="M2836 8577 c-13 -10 -27 -53 -47 -143 -36 -163 -37 -198 -5 -219 28
-19 71 -11 82 13 10 24 64 283 64 308 0 44 -57 68 -94 41z"/>
<path d="M11820 8050 c-11 -11 -20 -26 -20 -32 1 -7 7 -77 14 -156 14 -151 26
-182 70 -182 59 1 67 35 50 209 -14 154 -25 181 -71 181 -12 0 -32 -9 -43 -20z"/>
<path d="M2741 8043 c-19 -16 -23 -37 -36 -168 -17 -181 -12 -200 50 -200 48
0 65 25 65 100 0 28 5 90 10 139 12 102 9 119 -26 134 -33 16 -38 15 -63 -5z"/>
<path d="M11854 7516 c-17 -13 -19 -30 -22 -190 l-3 -176 25 -11 c31 -14 72
-5 85 20 8 14 15 234 11 328 -1 37 -60 55 -96 29z"/>
<path d="M2719 7506 c-23 -11 -24 -15 -27 -151 -4 -167 1 -200 32 -220 30 -20
73 -5 84 27 11 32 -1 309 -14 331 -13 23 -45 28 -75 13z"/>
<path d="M5478 7120 l-30 -30 4 -104 c1 -58 6 -108 11 -112 10 -10 29 17 72
101 47 94 53 127 26 154 -28 28 -47 26 -83 -9z"/>
<path d="M2753 6970 c-33 -14 -37 -48 -19 -178 22 -148 32 -188 52 -196 30
-11 61 -6 79 14 17 19 17 25 2 122 -9 57 -19 126 -23 153 -9 76 -41 105 -91
85z"/>
<path d="M11826 6967 c-14 -10 -24 -49 -42 -163 -29 -182 -28 -170 -4 -194 25
-25 62 -26 83 -2 16 18 57 237 57 306 0 57 -50 85 -94 53z"/>
<path d="M11732 6433 c-13 -12 -32 -62 -56 -152 -50 -185 -47 -211 21 -211 44
0 53 17 98 178 31 114 35 138 25 162 -10 24 -34 39 -61 40 -4 0 -16 -8 -27
-17z"/>
<path d="M2842 6433 c-33 -13 -32 -51 7 -193 41 -147 58 -180 98 -180 32 0 66
36 60 63 -16 73 -81 294 -89 305 -10 12 -51 15 -76 5z"/>
<path d="M3040 5923 c-49 -6 -73 -30 -66 -66 13 -62 109 -279 131 -293 30 -20
69 -9 84 22 10 23 -14 97 -102 304 -5 14 -10 28 -9 33 1 4 1 6 0 5 -2 0 -19
-3 -38 -5z"/>
<path d="M11577 5918 c-19 -15 -127 -272 -127 -304 0 -36 23 -56 60 -52 31 3
38 9 62 58 37 75 98 232 98 253 0 22 -35 57 -58 57 -10 0 -26 -6 -35 -12z"/>
<path d="M3403 5322 l-763 -2 0 -848 0 -847 4676 1 c2571 1 4677 4 4679 6 6 6
11 1676 5 1681 -6 6 -7361 14 -8597 9z m-263 -682 c44 -55 84 -100 88 -100 4
0 43 45 87 100 l80 100 53 0 52 0 0 -250 0 -250 -50 0 -50 0 -2 167 -3 166
-83 -101 -84 -101 -86 102 -87 101 -3 -167 -2 -167 -50 0 -50 0 0 250 0 250
54 0 54 0 82 -100z m890 85 c49 -25 52 -42 53 -269 l1 -211 -52 -3 -52 -3 0
80 0 81 -143 0 -143 0 0 -77 1 -78 -53 -3 -53 -3 3 219 c4 293 -7 280 246 281
127 1 169 -2 192 -14z m601 -23 c22 -24 29 -42 29 -72 l0 -40 -50 0 c-43 0
-50 3 -50 20 0 19 -7 20 -145 20 l-145 0 0 -45 0 -45 151 0 c216 0 239 -15
239 -151 0 -42 -6 -81 -15 -98 -24 -46 -55 -53 -245 -49 l-172 3 -29 33 c-22
24 -29 42 -29 72 l0 40 50 0 c43 0 50 -3 50 -20 0 -19 7 -20 145 -20 l145 0 0
39 0 40 -166 3 -166 3 -29 33 c-27 30 -29 38 -29 116 0 89 16 127 64 147 11 4
99 7 194 6 l174 -2 29 -33z m579 -17 l0 -55 -100 0 -100 0 0 -195 0 -195 -50
0 -50 0 0 195 0 195 -95 0 -95 0 0 55 0 55 245 0 245 0 0 -55z m510 0 l0 -55
-175 0 -175 0 0 -45 0 -45 140 0 140 0 0 -55 0 -55 -140 0 -140 0 0 -40 0 -40
175 0 175 0 0 -55 0 -55 -230 0 -230 0 0 250 0 250 230 0 230 0 0 -55z m531
17 c28 -31 29 -35 29 -141 0 -121 -12 -150 -72 -174 l-30 -12 51 -65 50 -65
-51 -3 -51 -3 -71 70 -71 71 -73 0 -72 0 0 -70 0 -70 -50 0 -50 0 0 251 0 250
216 -3 216 -3 29 -33z m799 -17 l0 -55 -100 0 -100 0 0 -195 0 -195 -50 0 -50
0 0 195 0 195 -95 0 -95 0 0 55 0 55 245 0 245 0 0 -55z m511 17 c28 -31 29
-35 29 -141 0 -121 -12 -150 -72 -174 l-30 -12 51 -65 50 -65 -51 -3 -51 -3
-71 70 -71 71 -73 0 -72 0 0 -70 0 -70 -50 0 -50 0 0 251 0 250 216 -3 216 -3
29 -33z m569 -17 l0 -55 -175 0 -175 0 0 -45 0 -45 140 0 140 0 0 -55 0 -55
-140 0 -140 0 0 -40 0 -40 175 0 175 0 0 -55 0 -55 -230 0 -230 0 0 250 0 250
230 0 230 0 0 -55z m316 -112 l139 -167 3 167 2 167 50 0 50 0 0 -250 0 -250
-52 0 -53 1 -125 150 c-69 83 -133 158 -142 166 -17 15 -18 8 -18 -150 l0
-167 -50 0 -50 0 0 250 0 250 53 0 54 0 139 -167z m764 152 c16 -8 35 -25 41
-37 16 -30 16 -366 0 -396 -25 -46 -56 -52 -276 -52 l-205 0 0 250 0 250 205
0 c164 0 212 -3 235 -15z m850 -40 l0 -55 -195 0 -195 0 0 -140 0 -140 195 0
195 0 0 -56 0 -55 -216 3 -216 3 -29 33 -29 32 0 179 c0 167 1 180 21 205 12
15 31 32 43 36 11 5 112 9 224 9 l202 1 0 -55z m180 -140 l0 -195 195 0 195 0
0 -55 0 -55 -245 0 -245 0 0 250 0 250 50 0 50 0 0 -195z m540 0 l0 -195 145
0 145 0 0 195 0 195 50 0 50 0 0 -210 c0 -135 -4 -218 -11 -234 -23 -49 -63
-58 -250 -54 l-171 3 -29 33 -29 32 0 215 0 215 50 0 50 0 0 -195z m891 179
c42 -21 61 -71 59 -153 -1 -36 3 -82 9 -101 26 -82 6 -181 -42 -210 -29 -18
-52 -20 -239 -20 l-208 0 0 250 0 250 195 0 c158 0 202 -3 226 -16z"/>
<path d="M3694 4570 l-1 -60 144 0 143 0 0 60 0 60 -143 0 -143 0 0 -60z"/>
<path d="M5890 4560 l0 -70 145 0 145 0 0 70 0 70 -145 0 -145 0 0 -70z"/>
<path d="M7200 4560 l0 -70 145 0 145 0 0 70 0 70 -145 0 -145 0 0 -70z"/>
<path d="M8874 4490 l0 -140 143 0 143 0 0 140 0 140 -143 0 -143 0 0 -140z"/>
<path d="M11360 4590 l0 -40 130 0 130 0 0 40 0 40 -130 0 -130 0 0 -40z"/>
<path d="M11360 4395 l0 -45 140 0 140 0 0 45 0 45 -140 0 -140 0 0 -45z"/>
<path d="M1160 4867 c0 -2 76 -104 169 -227 93 -123 167 -228 165 -232 -3 -5
-1 -7 4 -6 6 2 32 -27 59 -63 28 -36 93 -122 145 -191 l96 -125 -87 -114 c-48
-63 -179 -235 -291 -384 -112 -148 -216 -285 -231 -304 -16 -19 -26 -38 -23
-43 8 -12 2591 -10 2599 2 3 6 0 10 -7 10 -7 0 -71 18 -143 39 -71 21 -301 89
-510 151 -209 62 -417 123 -462 137 l-83 25 0 664 0 664 -700 0 c-385 0 -700
-1 -700 -3z"/>
<path d="M12087 4863 c-4 -3 -7 -302 -7 -663 l0 -658 -82 -25 c-46 -13 -175
-52 -288 -86 -113 -33 -318 -94 -456 -135 -138 -41 -281 -83 -317 -92 -36 -10
-64 -21 -61 -26 7 -11 2604 -10 2604 1 0 4 -26 42 -58 82 -32 41 -156 205
-277 364 -120 160 -232 307 -248 327 -17 22 -26 41 -22 49 5 8 4 10 -4 5 -6
-4 -14 -1 -17 7 -5 14 36 70 461 632 83 110 155 206 159 213 6 9 -134 12 -687
12 -381 0 -697 -3 -700 -7z"/>
<path d="M4182 3497 c29 -24 91 -71 138 -106 47 -35 84 -68 82 -73 -1 -5 2 -7
7 -4 5 3 47 -20 93 -51 45 -32 95 -65 109 -73 14 -8 77 -46 140 -84 553 -334
1205 -560 1889 -656 379 -53 981 -53 1360 0 433 61 839 169 1230 327 184 74
486 225 650 323 74 45 149 90 165 100 17 9 63 40 104 68 41 28 78 49 83 46 5
-3 7 -1 6 4 -2 5 35 38 82 72 47 35 109 83 138 107 l54 43 -234 0 -233 0 -70
-46 c-92 -61 -219 -141 -264 -166 -209 -118 -386 -207 -543 -271 -666 -275
-1323 -393 -2043 -366 -863 33 -1689 298 -2415 773 l-115 76 -233 0 -233 0 53
-43z"/>
<path d="M9515 3511 c-32 -10 -248 -122 -267 -139 -37 -32 -9 -102 41 -102 30
0 284 135 294 157 21 47 -20 98 -68 84z"/>
<path d="M5064 3485 c-29 -44 -13 -68 78 -116 207 -108 222 -113 252 -83 17
16 21 61 8 80 -13 20 -268 144 -295 144 -17 0 -32 -9 -43 -25z"/>
<path d="M5560 3260 c-22 -22 -25 -42 -10 -69 15 -29 256 -121 315 -121 40 0
64 37 49 76 -8 22 -31 34 -154 80 -79 30 -152 54 -162 54 -10 0 -27 -9 -38
-20z"/>
<path d="M8886 3229 c-72 -28 -136 -55 -143 -61 -18 -15 -16 -63 3 -82 8 -9
27 -16 42 -16 40 0 274 89 295 112 35 41 11 99 -41 97 -15 0 -85 -23 -156 -50z"/>
<path d="M6082 3094 c-39 -27 -24 -93 26 -108 20 -6 213 -51 259 -61 25 -5 36
-2 52 14 39 39 20 94 -37 107 -15 3 -80 19 -145 35 -139 34 -127 33 -155 13z"/>
<path d="M8365 3071 c-127 -33 -141 -38 -153 -64 -12 -24 -11 -31 2 -53 24
-35 37 -35 216 7 128 30 160 48 160 90 0 26 -36 59 -62 58 -13 -1 -86 -18
-163 -38z"/>
<path d="M6613 2985 c-27 -19 -32 -75 -9 -94 21 -18 312 -56 341 -45 7 3 19
19 25 35 10 24 10 33 -4 53 -17 27 -23 28 -176 46 -52 6 -108 13 -125 16 -19
3 -38 -1 -52 -11z"/>
<path d="M7965 2995 c-5 -3 -68 -11 -140 -19 -100 -11 -132 -19 -142 -32 -19
-26 -16 -61 7 -84 22 -22 12 -22 225 6 115 14 145 30 145 75 0 37 -56 69 -95
54z"/>
<path d="M7146 2934 c-9 -8 -16 -28 -16 -44 0 -55 15 -60 195 -60 158 0 164 1
179 22 21 30 20 54 -4 78 -18 18 -33 20 -179 20 -132 0 -162 -3 -175 -16z"/>
</g>
</svg>
